Coordinates
version=1
nRows=19
nColumns=63
inDegrees=yes

Units are S.I. units (second, meters, Newtons, ...)
If the header above contains a line with 'inDegrees', this indicates whether rotational values are in degrees (yes) or radians (no).

endheader
time	pelvis_tilt	pelvis_list	pelvis_rotation	pelvis_tx	pelvis_ty	pelvis_tz	hip_flexion_r	hip_adduction_r	hip_rotation_r	knee_angle_r	knee_angle_r_beta	ankle_angle_r	subtalar_angle_r	mtp_angle_r	hip_flexion_l	hip_adduction_l	hip_rotation_l	knee_angle_l	knee_angle_l_beta	ankle_angle_l	subtalar_angle_l	mtp_angle_l	L5_S1_Flex_Ext	L5_S1_Lat_Bending	L5_S1_axial_rotation	L4_L5_Flex_Ext	L4_L5_Lat_Bending	L4_L5_axial_rotation	L3_L4_Flex_Ext	L3_L4_Lat_Bending	L3_L4_axial_rotation	L2_L3_Flex_Ext	L2_L3_Lat_Bending	L2_L3_axial_rotation	L1_L2_Flex_Ext	L1_L2_Lat_Bending	L1_L2_axial_rotation	L1_T12_Flex_Ext	L1_T12_Lat_Bending	L1_T12_axial_rotation	Abs_r3	Abs_r2	Abs_r1	Abs_t1	Abs_t2	neck_flexion	neck_bending	neck_rotation	arm_flex_r	arm_add_r	arm_rot_r	elbow_flex_r	pro_sup_r	wrist_flex_r	wrist_dev_r	arm_flex_l	arm_add_l	arm_rot_l	elbow_flex_l	pro_sup_l	wrist_flex_l	wrist_dev_l
0.000000	-2.760102	-3.832728	90.787243	0.438890	0.667856	1.070380	6.941942	-2.870200	-6.881051	6.704680	0.117019	24.873143	13.007931	0.000000	7.963258	-0.140344	-11.947709	11.744086	0.204973	27.992282	12.246780	0.000000	0.142783	-0.240863	2.664690	0.265162	-0.320348	2.831233	0.234578	-0.585635	2.831233	0.163187	-0.585635	2.331604	0.132588	-0.491168	2.165061	0.081586	-0.373097	1.998518	1.019885	-2.724692	14.820207	0.000000	0.000000	27.281983	0.974660	-8.003910	4.500406	-16.055585	35.149148	70.427263	65.188524	23.535901	30.687492	23.141708	-11.240511	61.471008	64.547544	83.997844	3.997035	10.610015
0.016667	-2.662415	-3.595795	90.292410	0.439762	0.668087	1.069265	6.677947	-2.543868	-5.120547	6.718843	0.117266	24.408786	10.739747	0.000000	7.433526	-0.142450	-10.851980	11.712659	0.204424	27.372002	10.007877	0.000000	0.132144	-0.224071	2.779530	0.245405	-0.298015	2.953251	0.217100	-0.544807	2.953251	0.151028	-0.544807	2.432089	0.122709	-0.456926	2.258368	0.075507	-0.347086	2.084648	0.943894	-2.534739	15.458914	0.000000	0.000000	27.115753	1.108119	-7.662283	2.958250	-15.147261	32.941730	70.913777	65.286813	21.347243	31.029764	24.025798	-11.216359	62.995876	64.629534	84.179950	2.569501	10.796738
0.033333	-2.604754	-3.391842	89.774496	0.440642	0.668276	1.068279	6.455174	-2.296291	-3.608216	6.736085	0.117567	24.057170	8.977006	0.000000	6.959317	-0.130630	-10.101359	11.644688	0.203238	26.883135	8.217383	0.000000	0.121687	-0.212636	2.893428	0.225985	-0.282806	3.074267	0.199920	-0.517004	3.074267	0.139076	-0.517004	2.531750	0.112999	-0.433608	2.350910	0.069532	-0.329374	2.170071	0.869198	-2.405385	16.092380	0.000000	0.000000	26.986766	1.191972	-7.408647	1.669929	-14.353561	31.085107	71.263974	65.437231	19.458195	31.269019	24.796782	-11.175152	64.421809	64.619099	83.979858	1.346696	10.991800
0.050000	-2.581264	-3.218879	89.244549	0.441515	0.668426	1.067416	6.270159	-2.118776	-2.329600	6.754835	0.117894	23.807644	7.672308	0.000000	6.539442	-0.107975	-9.656422	11.547492	0.201542	26.513915	6.835756	0.000000	0.111499	-0.205792	3.004812	0.207065	-0.273703	3.192613	0.183181	-0.500362	3.192613	0.127432	-0.500362	2.629211	0.103538	-0.419651	2.441410	0.063710	-0.318771	2.253609	0.796425	-2.327958	16.711865	0.000000	0.000000	26.891776	1.229260	-7.235597	0.613577	-13.666037	29.547557	71.486911	65.645191	17.848289	31.395853	25.454874	-11.117414	65.735421	64.523114	83.452535	0.328932	11.189011
0.066667	-2.586091	-3.074915	88.713620	0.442365	0.668539	1.066671	6.119434	-2.002632	-1.270237	6.773521	0.118220	23.649556	6.778247	0.000000	6.172712	-0.077577	-9.477745	11.428390	0.199463	26.252572	5.823458	0.000000	0.101668	-0.202771	3.112111	0.188808	-0.269685	3.306618	0.167031	-0.493017	3.306618	0.116197	-0.493017	2.723097	0.094409	-0.413490	2.528590	0.058093	-0.314092	2.334083	0.726206	-2.293783	17.308628	0.000000	0.000000	26.827534	1.223029	-7.135732	-0.232674	-13.076244	28.297356	71.591645	65.916106	16.497061	31.400861	26.000283	-11.043670	66.923324	64.348453	82.652946	-0.483478	11.382180
0.083333	-2.613380	-2.957963	88.192758	0.443177	0.668616	1.066038	5.999534	-1.939166	-0.415670	6.790574	0.118518	23.572253	6.247422	0.000000	5.857937	-0.042525	-9.525906	11.294698	0.197130	26.087338	5.140950	0.000000	0.092283	-0.202807	3.213753	0.171380	-0.269733	3.414613	0.151612	-0.493104	3.414613	0.105471	-0.493104	2.812034	0.085694	-0.413563	2.611175	0.052731	-0.314148	2.410315	0.659171	-2.294190	17.873931	0.000000	0.000000	26.790795	1.176321	-7.101648	-0.890689	-12.575735	27.302780	71.587232	66.255387	15.384044	31.274642	26.433223	-10.954442	67.972134	64.101992	81.636059	-1.090222	11.565115
0.100000	-2.657276	-2.866033	87.693013	0.443935	0.668660	1.065514	5.906992	-1.919688	0.248563	6.804423	0.118760	23.565083	6.032429	0.000000	5.593930	-0.005909	-9.761480	11.153736	0.194669	26.006446	4.748691	0.000000	0.083433	-0.205133	3.308167	0.154943	-0.272827	3.514928	0.137071	-0.498760	3.514928	0.095355	-0.498760	2.894646	0.077476	-0.418307	2.687886	0.047673	-0.317751	2.481125	0.595951	-2.320503	18.399034	0.000000	0.000000	26.778310	1.092180	-7.125943	-1.382335	-12.156064	26.532106	71.482731	66.668448	14.488773	31.007790	26.753905	-10.850257	68.868462	63.790603	80.456839	-1.490988	11.731626
0.116667	-2.711925	-2.797134	87.225435	0.444624	0.668671	1.065091	5.838342	-1.935504	0.736921	6.813497	0.118918	23.617395	6.085865	0.000000	5.379500	0.029178	-10.145043	11.012822	0.192210	25.998128	4.607143	0.000000	0.075204	-0.208982	3.393782	0.139661	-0.277947	3.605893	0.123553	-0.508120	3.605893	0.085951	-0.508120	2.969559	0.069834	-0.426157	2.757448	0.042972	-0.323714	2.545336	0.537174	-2.364050	18.875196	0.000000	0.000000	26.786831	0.973650	-7.201214	-1.729481	-11.808786	25.953609	71.287198	67.160701	13.790782	30.590902	26.962541	-10.731638	69.598924	63.421162	79.170253	-1.685464	11.875523
0.133333	-2.771472	-2.749279	86.801072	0.445227	0.668653	1.064765	5.790119	-1.977923	1.063863	6.816227	0.118966	23.718535	6.360328	0.000000	5.213461	0.059647	-10.637172	10.879274	0.189879	26.050616	4.676765	0.000000	0.067686	-0.213589	3.469025	0.125699	-0.284073	3.685839	0.111201	-0.519320	3.685839	0.077358	-0.519320	3.035397	0.062853	-0.435550	2.818583	0.038676	-0.330849	2.601769	0.483472	-2.416158	19.293677	0.000000	0.000000	26.813112	0.823773	-7.320058	-1.953991	-11.525453	25.535565	71.009689	67.737558	13.269605	30.014575	27.059342	-10.599110	70.150133	63.000544	77.831267	-1.673336	11.990614
0.150000	-2.830063	-2.720477	86.430976	0.445730	0.668607	1.064532	5.758856	-2.038254	1.243850	6.811041	0.118875	23.857851	6.808414	0.000000	5.094621	0.082407	-11.198444	10.760410	0.187805	26.152140	4.918019	0.000000	0.060966	-0.218185	3.532326	0.113220	-0.290186	3.753096	0.100161	-0.530495	3.753096	0.069678	-0.530495	3.090785	0.056613	-0.444923	2.870015	0.034836	-0.337969	2.649245	0.435475	-2.468154	19.645738	0.000000	0.000000	26.853906	0.645594	-7.475071	-2.077734	-11.297621	25.246252	70.659264	68.404431	12.904777	29.269405	27.044521	-10.453197	70.508701	62.535623	76.494847	-1.454294	12.070709
0.166667	-2.881842	-2.708740	86.126196	0.446116	0.668535	1.064384	5.741087	-2.107804	1.291340	6.796368	0.118619	24.024692	7.382720	0.000000	5.021793	0.094368	-11.789434	10.663549	0.186114	26.290935	5.291364	0.000000	0.055133	-0.222005	3.582113	0.102388	-0.295267	3.805995	0.090579	-0.539783	3.805995	0.063012	-0.539783	3.134349	0.051197	-0.452713	2.910467	0.031503	-0.343886	2.686585	0.393812	-2.511365	19.922638	0.000000	0.000000	26.905964	0.442156	-7.658852	-2.122576	-11.116842	25.053945	70.244977	69.166734	12.675830	28.345988	26.918289	-10.294422	70.661244	62.033274	75.215960	-1.028025	12.109616
0.183333	-2.901464	-2.713618	85.950203	0.446270	0.668448	1.064333	5.721934	-2.155837	1.231398	6.744237	0.117709	24.191102	7.948676	0.000000	5.003266	0.087758	-12.183958	10.624074	0.185425	26.424267	5.624263	0.000000	0.051517	-0.221417	3.608744	0.095673	-0.294484	3.834291	0.084638	-0.538352	3.834291	0.058879	-0.538352	3.157651	0.047839	-0.451513	2.932105	0.029437	-0.342974	2.706558	0.367983	-2.504709	20.070754	0.000000	0.000000	26.958416	0.222029	-7.829547	-2.182195	-10.923039	24.820817	69.781130	70.129251	12.521802	27.244611	26.674773	-10.082725	70.576012	61.457417	74.415859	-0.325064	12.060871
0.200000	-2.887426	-2.732890	85.899475	0.446219	0.668332	1.064396	5.715207	-2.190727	0.934883	6.704211	0.117011	24.378284	8.657760	0.000000	5.044455	0.044048	-12.545227	10.648156	0.185845	26.564642	6.054970	0.000000	0.048943	-0.216089	3.605187	0.090893	-0.287399	3.830511	0.080409	-0.525400	3.830511	0.055937	-0.525400	3.154538	0.045449	-0.440650	2.929214	0.027966	-0.334723	2.703890	0.349597	-2.444447	20.050968	0.000000	0.000000	27.008845	-0.034120	-7.987118	-2.132137	-10.785115	24.723434	69.189464	71.200700	12.537345	25.745784	26.265173	-9.867961	70.168736	60.866073	73.932045	0.806391	11.886249
0.216667	-2.859500	-2.760591	85.912459	0.446030	0.668172	1.064520	5.714153	-2.208932	0.712733	6.657467	0.116195	24.541991	9.161109	0.000000	5.119907	-0.010361	-12.853229	10.716413	0.187037	26.692070	6.465329	0.000000	0.046679	-0.208894	3.600614	0.086688	-0.277829	3.825652	0.076690	-0.507905	3.825652	0.053350	-0.507905	3.150537	0.043346	-0.425977	2.925499	0.026673	-0.323577	2.700460	0.333426	-2.363050	20.025534	0.000000	0.000000	27.071000	-0.331633	-8.230618	-2.094917	-10.681252	24.596509	68.522510	72.441897	12.580158	23.740904	25.798622	-9.643735	69.663797	60.257220	73.528518	2.234501	11.699627
0.233333	-2.791436	-2.795908	86.044899	0.445631	0.667971	1.064709	5.714193	-2.193698	0.417090	6.606429	0.115304	24.691089	9.577717	0.000000	5.239693	-0.093934	-13.011188	10.837680	0.189153	26.812359	6.814379	0.000000	0.045476	-0.196226	3.576906	0.084453	-0.260980	3.800462	0.074712	-0.477103	3.800462	0.051974	-0.477103	3.129793	0.042229	-0.400143	2.906236	0.025985	-0.303954	2.682679	0.324829	-2.219744	19.893677	0.000000	0.000000	27.135396	-0.675707	-8.480876	-2.040859	-10.600503	24.469780	67.729559	73.713064	12.647091	21.360067	25.204518	-9.412575	68.884309	59.652541	73.200854	3.925203	11.508474
0.250000	-2.690862	-2.840641	86.288093	0.445067	0.667733	1.064932	5.716268	-2.148496	0.043151	6.543478	0.114205	24.824467	9.927829	0.000000	5.399585	-0.200074	-13.029077	11.002647	0.192032	26.930771	7.109386	0.000000	0.046254	-0.179577	3.529585	0.085899	-0.238837	3.750184	0.075991	-0.436623	3.750184	0.052864	-0.436623	3.088387	0.042952	-0.366193	2.867788	0.026430	-0.278165	2.647188	0.330390	-2.031410	19.630491	0.000000	0.000000	27.202109	-1.028634	-8.699803	-1.977889	-10.523811	24.346717	66.814337	74.938773	12.632147	18.768070	24.422177	-9.196530	67.661992	59.108043	72.904653	5.782952	11.379457
0.266667	-2.560048	-2.892011	86.617637	0.444405	0.667465	1.065179	5.719261	-2.067212	-0.360939	6.459297	0.112736	24.930480	10.170530	0.000000	5.591871	-0.333345	-12.949730	11.206578	0.195592	27.058945	7.388400	0.000000	0.048771	-0.160313	3.466145	0.090572	-0.213216	3.682780	0.080125	-0.389784	3.682780	0.055740	-0.389784	3.032877	0.045288	-0.326909	2.816243	0.027867	-0.248324	2.599609	0.348363	-1.813487	19.277661	0.000000	0.000000	27.270305	-1.383368	-8.941929	-1.968976	-10.426552	24.104509	65.836663	76.228730	12.615977	16.168306	23.476547	-8.991675	65.985080	58.633765	72.672586	7.593566	11.267452
0.283333	-2.423624	-2.922758	87.054011	0.443661	0.667217	1.065437	5.685343	-1.977836	-0.850731	6.338182	0.110622	25.012343	10.354895	0.000000	5.785058	-0.462657	-12.719818	11.438680	0.199643	27.181542	7.606298	0.000000	0.048376	-0.141993	3.380256	0.089838	-0.188851	3.591522	0.079476	-0.345243	3.591522	0.055288	-0.345243	2.957724	0.044922	-0.289553	2.746458	0.027642	-0.219948	2.535192	0.345542	-1.606258	18.799972	0.000000	0.000000	27.339827	-1.694476	-9.185708	-2.061278	-10.306432	23.725729	64.919709	77.482476	12.437591	13.878354	22.455783	-8.829341	63.967292	58.210510	72.215240	9.113975	11.016739
0.300000	-2.268754	-2.970961	87.525532	0.442914	0.666953	1.065683	5.667240	-1.859236	-1.355280	6.192496	0.108079	25.052328	10.478607	0.000000	5.996999	-0.609901	-12.433543	11.669178	0.203666	27.301620	7.813872	0.000000	0.052270	-0.123428	3.283650	0.097071	-0.164160	3.488878	0.085875	-0.300104	3.488878	0.059740	-0.300104	2.873193	0.048538	-0.251695	2.667965	0.029867	-0.191191	2.462737	0.373361	-1.396246	18.262674	0.000000	0.000000	27.398901	-1.910974	-9.403329	-2.346697	-10.199779	23.160437	64.257832	78.822744	12.157200	12.053792	21.322286	-8.696315	61.459945	57.808787	72.405684	10.359120	10.553903
